<svg xmlns="http://www.w3.org/2000/svg" id="Layer_2" viewBox="0 0 32 32"><defs><style>.cls-1{fill:#999;stroke-width:0}</style></defs><path d="M15.963 28.94c7.147.02 12.957-5.757 12.977-12.903C28.96 8.89 23.184 3.08 16.037 3.06 8.891 3.04 3.08 8.817 3.061 15.963c-.016 7.145 5.758 12.951 12.902 12.977M16.04 2c7.732.022 13.982 6.308 13.96 14.04-.022 7.732-6.308 13.982-14.04 13.96C8.229 29.978 1.979 23.692 2 15.96 2.022 8.23 8.308 1.978 16.04 2" class="cls-1"/><path d="m17.267 14.958 4.956-5.76h-1.175l-4.303 5.001-3.437-5.002H9.344l5.197 7.564-5.198 6.042h1.175l4.544-5.283 3.63 5.283h3.965l-5.39-7.845Zm-1.609 1.87-.527-.753-4.19-5.994h1.804l3.382 4.837.526.753 4.396 6.288h-1.804l-3.587-5.13Z" class="cls-1"/></svg>