<svg xmlns="http://www.w3.org/2000/svg" viewBox="0 0 32 32"><defs><style>.cls-1{fill:#999}</style></defs><g id="Layer_2" data-name="Layer 2"><path d="M16 30a14 14 0 1 1 14-14 14 14 0 0 1-14 14Zm0-26.94A12.94 12.94 0 1 0 29 16 13 13 0 0 0 16 3.06Z" class="cls-1"/><path d="M22.53 11.54a3 3 0 0 1-3-3A.47.47 0 0 0 19 8h-2.5a.47.47 0 0 0-.46.47v10.28A1.78 1.78 0 1 1 14.3 17a.47.47 0 0 0 .46-.47V14a.47.47 0 0 0-.46-.46 5.21 5.21 0 1 0 5.21 5.21v-4.53a6.43 6.43 0 0 0 3 .75.47.47 0 0 0 .49-.47V12a.47.47 0 0 0-.47-.46ZM22.07 14a5.53 5.53 0 0 1-2.76-1 .47.47 0 0 0-.74.38v5.37a4.28 4.28 0 1 1-4.74-4.26v1.58A2.72 2.72 0 1 0 17 18.75V9h1.6a4 4 0 0 0 3.47 3.46Z" class="cls-1"/></g></svg>