<svg xmlns="http://www.w3.org/2000/svg" viewBox="0 0 32 32"><defs><style>.cls-1{fill:#999}</style></defs><g id="Layer_2" data-name="Layer 2"><path d="M15.78 30A14 14 0 1 1 30 16.22 14 14 0 0 1 15.78 30Zm.43-26.94a12.94 12.94 0 1 0 12.73 13.15A13 13 0 0 0 16.21 3.06Z" class="cls-1"/><path id="surface1" d="M13.13 9.05a4 4 0 0 0-4 4v5.84a4 4 0 0 0 4 4H19a4 4 0 0 0 4-4v-5.81a4 4 0 0 0-4-4Zm0 1.07H19a3 3 0 0 1 3 3v5.84a3 3 0 0 1-3 3h-5.87a3 3 0 0 1-3-3v-5.88a3 3 0 0 1 3-2.96Zm6.93 1.07a.8.8 0 1 0 .8.8.8.8 0 0 0-.8-.8Zm-4 1.07A3.74 3.74 0 1 0 19.79 16a3.76 3.76 0 0 0-3.74-3.74Zm0 1.07A2.67 2.67 0 1 1 13.37 16a2.66 2.66 0 0 1 2.68-2.67Z" class="cls-1"/></g></svg>