<svg xmlns="http://www.w3.org/2000/svg" viewBox="0 0 32 32"><defs><style>.cls-1{fill:#999}</style></defs><g id="Layer_2" data-name="Layer 2"><path id="Layer_2-2" d="M16 30a14 14 0 1 1 14-14 14 14 0 0 1-14 14Zm0-26.9A12.9 12.9 0 1 0 28.9 16 12.91 12.91 0 0 0 16 3.1Z" class="cls-1" data-name="Layer 2"/><g id="图层_2" data-name="图层 2"><g id="Discord_Logos" data-name="Discord Logos"><path id="Discord_Logo_-_Large_-_White" d="M20.9 11.6a13.93 13.93 0 0 0-2.9-.9 6 6 0 0 0-.4.8 8.61 8.61 0 0 0-3.2 0 3 3 0 0 0-.4-.8 13.93 13.93 0 0 0-2.9.9A12 12 0 0 0 9 19.5a12.9 12.9 0 0 0 3.5 1.8c.3-.4.5-.8.8-1.2a6.72 6.72 0 0 1-1.2-.6c.1-.1.2-.1.3-.2a8 8 0 0 0 7.1 0c.1.1.2.2.3.2l-1.2.6a8.64 8.64 0 0 0 .8 1.2 10.68 10.68 0 0 0 3.5-1.8 11.9 11.9 0 0 0-2-7.9Zm-7.2 6.3a1.4 1.4 0 1 1 1.3-1.5v.1a1.42 1.42 0 0 1-1.3 1.4Zm4.6 0a1.4 1.4 0 1 1 1.3-1.5v.1a1.35 1.35 0 0 1-1.3 1.4Z" class="cls-1" data-name="Discord Logo - Large - White"/></g></g></g></svg>